<?xml version="1.0" encoding="UTF-8"?>
<svg id="Capa_1" data-name="Capa 1" xmlns="http://www.w3.org/2000/svg" viewBox="0 0 565.8 565.8">
  <defs>
    <style>
      .cls-1 {
        fill: #fff;
      }

      .cls-2 {
        opacity: .6;
      }

      .cls-3 {
        fill: #366549;
      }

      .cls-4 {
        opacity: .85;
      }

      .cls-4, .cls-5, .cls-6, .cls-7, .cls-8 {
        fill: #eb5f29;
      }

      .cls-4, .cls-5, .cls-6, .cls-8 {
        isolation: isolate;
      }

      .cls-9 {
        fill: #1e1e1c;
      }

      .cls-10 {
        opacity: .8;
      }

      .cls-5 {
        opacity: .9;
      }

      .cls-6 {
        opacity: .75;
      }

      .cls-8 {
        opacity: .95;
      }
    </style>
  </defs>
  <circle class="cls-9" cx="282.9" cy="282.9" r="282.9"/>
  <circle class="cls-3" cx="282.9" cy="282.9" r="257.18"/>
  <g>
    <g>
      <polygon class="cls-1" points="505.91 154.21 283.06 25.55 60.22 154.22 60.22 411.52 283.06 540.18 505.91 411.52 505.91 154.21"/>
      <polygon class="cls-5" points="286.43 139.13 160.12 357.9 412.73 357.9 286.43 139.13"/>
      <polygon class="cls-4" points="60.22 154.22 286.43 139.13 160.12 357.9 60.22 154.22"/>
      <polygon class="cls-6" points="286.43 139.13 505.91 154.21 412.73 357.9 286.43 139.13"/>
      <polygon class="cls-8" points="60.22 154.22 60.22 411.52 160.12 357.9 60.22 154.22"/>
      <polygon class="cls-8" points="412.73 357.9 505.91 154.21 505.91 411.52 412.73 357.9"/>
      <polygon class="cls-4" points="505.91 411.52 283.06 540.18 412.73 357.9 505.91 411.52"/>
      <polygon class="cls-6" points="283.06 540.18 412.73 357.9 160.12 357.9 283.06 540.18"/>
      <polygon class="cls-4" points="60.22 411.52 160.12 357.9 283.06 540.18 60.22 411.52"/>
      <polygon class="cls-8" points="60.22 154.22 286.43 139.13 283.06 25.55 60.22 154.22"/>
      <polygon class="cls-4" points="286.43 139.13 283.06 25.55 505.91 154.21 286.43 139.13"/>
    </g>
    <g>
      <path class="cls-1" d="m279.92,313.76v-46.63c-8.68,6.66-14.52,9.99-17.52,9.99-1.43,0-2.71-.57-3.82-1.72-1.11-1.14-1.67-2.47-1.67-3.97,0-1.74.55-3.02,1.64-3.84,1.09-.82,3.02-1.88,5.79-3.18,4.13-1.95,7.44-4,9.91-6.15,2.48-2.15,4.67-4.56,6.58-7.22,1.91-2.66,3.16-4.3,3.74-4.92.58-.61,1.67-.92,3.28-.92,1.81,0,3.26.7,4.36,2.1,1.09,1.4,1.64,3.33,1.64,5.79v58.67c0,6.87-2.34,10.3-7.02,10.3-2.08,0-3.76-.7-5.02-2.1-1.26-1.4-1.9-3.47-1.9-6.2Z"/>
      <g class="cls-10">
        <path class="cls-7" d="m299.57,464.3h-31.75c-3.05,0-5.26-.48-6.63-1.43-1.37-.95-2.05-2.53-2.05-4.72,0-1.33.8-3.1,2.41-5.29,1.61-2.19,3.43-4.62,5.48-7.27,2.05-2.65,4.16-5.95,6.34-9.89,2.18-3.94,4.17-8.76,5.98-14.45.76-2.51,1.3-4.59,1.62-6.25.32-1.65.67-3.8,1.05-6.44.38-2.64.71-4.66,1-6.05.67-3.24,1.61-5.49,2.84-6.75,1.22-1.26,2.85-1.88,4.89-1.88,1.94,0,3.5.68,4.67,2.03,1.18,1.35,1.76,3.35,1.76,5.98,0,2.03-.43,4.8-1.29,8.3-.86,3.5-2.26,7.68-4.2,12.56-1.94,4.88-4.36,9.88-7.27,15.02-2.91,5.13-6.36,10.24-10.37,15.33h25.51c2.67,0,4.66.48,5.98,1.45,1.32.97,1.98,2.49,1.98,4.55s-.7,3.61-2.1,4.24c-1.4.64-3.35.95-5.86.95Z"/>
      </g>
      <g class="cls-2">
        <path class="cls-7" d="m170.77,252.41l-36.71-21.52c1.24,9.91,1.17,16.04-.22,18.41-.66,1.13-1.7,1.87-3.11,2.21-1.41.35-2.71.17-3.9-.52-1.37-.8-2.13-1.83-2.27-3.06-.14-1.24-.08-3.25.17-6.02.37-4.15.29-7.7-.26-10.64-.55-2.94-1.43-5.78-2.65-8.52-1.21-2.74-1.93-4.47-2.15-5.22-.22-.74.05-1.74.79-3.01.84-1.43,2.06-2.24,3.66-2.46,1.61-.21,3.38.25,5.32,1.38l46.19,27.08c5.41,3.17,7.03,6.6,4.87,10.28-.96,1.64-2.29,2.64-3.97,2.98-1.69.35-3.6-.11-5.76-1.37Z"/>
        <path class="cls-7" d="m158.64,173.38l-11.23,19.16,11.72,9.96c.2-5.02,1.24-9.14,3.13-12.37,1.51-2.58,3.41-4.71,5.7-6.39,2.28-1.68,4.78-2.86,7.48-3.56,2.7-.69,5.51-.84,8.41-.43s5.71,1.39,8.4,2.97c3.9,2.29,6.94,5.24,9.11,8.87,2.18,3.62,3.24,7.64,3.19,12.03s-1.33,8.75-3.86,13.05c-2.82,4.81-6,8.2-9.53,10.16-3.53,1.96-6.82,2.89-9.85,2.79-3.03-.1-5.41-.65-7.13-1.66-1.05-.61-1.79-1.63-2.22-3.06-.43-1.43-.26-2.8.52-4.12,1.32-2.26,3.61-3.17,6.87-2.75,3.02.33,5.74-.03,8.14-1.08,2.4-1.05,4.27-2.7,5.59-4.96,1.21-2.07,1.74-4.2,1.58-6.39-.16-2.19-.93-4.26-2.32-6.21-1.39-1.95-3.28-3.63-5.67-5.03-2.58-1.51-5.06-2.35-7.42-2.51-2.36-.16-4.45.27-6.25,1.27-1.8,1-3.25,2.45-4.36,4.33-1.36,2.31-2.04,4.13-2.06,5.46-.02,1.33.13,3.34.45,6.03.32,2.7.12,4.65-.59,5.86-.77,1.32-1.94,2.21-3.49,2.67s-2.94.34-4.15-.37c-.13-.08-.96-.76-2.48-2.05l-17.34-14.72c-2.09-1.73-3.36-3.42-3.81-5.05-.45-1.64,0-3.61,1.36-5.92l12.49-21.3c2.46-4.2,5.29-5.36,8.49-3.48,1.4.82,2.23,1.99,2.49,3.52.26,1.53-.19,3.28-1.36,5.27Z"/>
      </g>
      <g class="cls-10">
        <path class="cls-7" d="m366.54,203.12l36.96-21.28c-9.24-3.84-14.55-6.95-15.92-9.33-.65-1.14-.78-2.41-.38-3.81.4-1.4,1.2-2.45,2.39-3.13,1.38-.79,2.65-.95,3.79-.45,1.15.49,2.87,1.54,5.16,3.14,3.43,2.39,6.56,4.07,9.4,5.05,2.84.98,5.75,1.62,8.73,1.92,2.98.3,4.85.54,5.61.72.75.18,1.49.91,2.23,2.18.83,1.44.93,2.91.32,4.41-.61,1.51-1.89,2.82-3.84,3.94l-46.51,26.77c-5.44,3.13-9.23,2.84-11.37-.86-.95-1.65-1.16-3.3-.63-4.94.53-1.64,1.88-3.08,4.05-4.33Z"/>
        <path class="cls-7" d="m419.57,243.62c-3.14-.57-5.88-1.65-8.22-3.24-2.34-1.59-4.28-3.73-5.82-6.41-1.47-2.55-2.34-5.21-2.62-7.98-.28-2.78,0-5.48.85-8.11.85-2.63,2.2-5.06,4.08-7.29,1.87-2.23,4.11-4.09,6.71-5.59,2.79-1.61,5.72-2.64,8.78-3.11,3.07-.47,6.04-.32,8.93.43,2.89.75,5.56,2.09,8.03,4,2.47,1.91,4.58,4.38,6.32,7.42,2.01,3.49,3.17,6.97,3.47,10.44.3,3.47-.22,6.83-1.57,10.1-1.35,3.26-3.58,6.46-6.68,9.58-3.11,3.12-6.99,6.02-11.65,8.7-5.2,2.99-10.09,5.1-14.66,6.33-4.58,1.23-8.79,1.61-12.65,1.14-3.86-.47-7.25-1.73-10.19-3.79-2.93-2.06-5.43-4.88-7.49-8.45s-3.12-6.97-3.27-10.34c-.16-3.37.37-6.31,1.58-8.81,1.21-2.5,2.74-4.28,4.58-5.34,1.14-.65,2.39-.82,3.77-.49,1.38.32,2.44,1.14,3.19,2.44.69,1.19.97,2.45.85,3.78-.12,1.33-.7,2.62-1.75,3.87-1.28,1.53-2.02,3.27-2.21,5.22s.21,3.79,1.21,5.52c.89,1.54,2.12,2.78,3.7,3.71,1.58.93,3.37,1.47,5.36,1.62,4.02.28,9.81-1.5,17.36-5.34Zm11.89-8.09c1.84-1.06,3.4-2.29,4.67-3.69,1.27-1.4,2.21-2.88,2.83-4.44.61-1.56.89-3.16.81-4.79-.07-1.63-.54-3.19-1.4-4.68-1.48-2.57-3.84-4.12-7.07-4.63-3.24-.52-6.67.27-10.3,2.36s-5.96,4.62-7.07,7.64c-1.11,3.02-.88,5.89.7,8.63.97,1.68,2.33,3.03,4.09,4.05,1.76,1.02,3.76,1.53,5.99,1.53,2.23,0,4.49-.66,6.76-1.97Z"/>
      </g>
    </g>
  </g>
</svg>